<svg xmlns="http://www.w3.org/2000/svg" xmlns:xlink="http://www.w3.org/1999/xlink" width="500" zoomAndPan="magnify" viewBox="0 0 375 374.999991" height="500" preserveAspectRatio="xMidYMid meet" version="1.0"><defs><clipPath id="29f801c7f3"><path d="M 187.5 0 C 83.945312 0 0 83.945312 0 187.5 C 0 291.054688 83.945312 375 187.5 375 C 291.054688 375 375 291.054688 375 187.5 C 375 83.945312 291.054688 0 187.5 0 Z M 187.5 0 " clip-rule="nonzero"/></clipPath><clipPath id="c6f8860e0f"><path d="M 193.363281 170.761719 L 324 170.761719 L 324 291.109375 L 193.363281 291.109375 Z M 193.363281 170.761719 " clip-rule="nonzero"/></clipPath><clipPath id="3f1d881f05"><path d="M 193.363281 173.011719 L 193.363281 289.125 C 193.363281 289.71875 193.597656 290.292969 194.019531 290.714844 C 194.441406 291.136719 195.015625 291.375 195.613281 291.375 L 345 291.375 C 345.597656 291.375 346.167969 291.136719 346.589844 290.714844 C 347.011719 290.292969 347.25 289.71875 347.25 289.125 L 347.25 173.011719 C 347.25 172.417969 347.011719 171.84375 346.589844 171.421875 C 346.167969 171 345.597656 170.761719 345 170.761719 L 195.613281 170.761719 C 195.015625 170.761719 194.441406 171 194.019531 171.421875 C 193.597656 171.84375 193.363281 172.417969 193.363281 173.011719 Z M 193.363281 173.011719 " clip-rule="nonzero"/></clipPath><clipPath id="2d8b975d8b"><path d="M 51 170.761719 L 181.132812 170.761719 L 181.132812 291.109375 L 51 291.109375 Z M 51 170.761719 " clip-rule="nonzero"/></clipPath><clipPath id="f69ddd69dd"><path d="M 27.75 173.011719 L 27.75 289.125 C 27.75 289.71875 27.988281 290.292969 28.410156 290.714844 C 28.832031 291.136719 29.402344 291.375 30 291.375 L 179.386719 291.375 C 179.984375 291.375 180.558594 291.136719 180.980469 290.714844 C 181.402344 290.292969 181.636719 289.71875 181.636719 289.125 L 181.636719 173.011719 C 181.636719 172.417969 181.402344 171.84375 180.980469 171.421875 C 180.558594 171 179.984375 170.761719 179.386719 170.761719 L 30 170.761719 C 29.402344 170.761719 28.832031 171 28.410156 171.421875 C 27.988281 171.84375 27.75 172.417969 27.75 173.011719 Z M 27.75 173.011719 " clip-rule="nonzero"/></clipPath><clipPath id="d262172173"><path d="M 191.730469 144.046875 L 286 144.046875 L 286 231.359375 L 191.730469 231.359375 Z M 191.730469 144.046875 " clip-rule="nonzero"/></clipPath><clipPath id="a469ef528a"><path d="M 191.730469 145.546875 L 191.730469 229.566406 C 191.730469 230.398438 192.402344 231.066406 193.230469 231.066406 L 301.257812 231.066406 C 302.085938 231.066406 302.757812 230.398438 302.757812 229.566406 L 302.757812 145.546875 C 302.757812 144.71875 302.085938 144.046875 301.257812 144.046875 L 193.230469 144.046875 C 192.402344 144.046875 191.730469 144.71875 191.730469 145.546875 Z M 191.730469 145.546875 " clip-rule="nonzero"/></clipPath><clipPath id="03b420e8f6"><path d="M 89 144.046875 L 183.148438 144.046875 L 183.148438 231.359375 L 89 231.359375 Z M 89 144.046875 " clip-rule="nonzero"/></clipPath><clipPath id="4880e1ed6d"><path d="M 72.242188 145.546875 L 72.242188 229.566406 C 72.242188 230.398438 72.914062 231.066406 73.742188 231.066406 L 181.769531 231.066406 C 182.597656 231.066406 183.269531 230.398438 183.269531 229.566406 L 183.269531 145.546875 C 183.269531 144.71875 182.597656 144.046875 181.769531 144.046875 L 73.742188 144.046875 C 72.914062 144.046875 72.242188 144.71875 72.242188 145.546875 Z M 72.242188 145.546875 " clip-rule="nonzero"/></clipPath><clipPath id="6989a68da6"><path d="M 78.6875 297.289062 L 197.855469 297.289062 L 197.855469 322.050781 L 78.6875 322.050781 Z M 78.6875 297.289062 " clip-rule="nonzero"/></clipPath><clipPath id="a3b60945e9"><path d="M 177.472656 297.289062 L 296.308594 297.289062 L 296.308594 322.050781 L 177.472656 322.050781 Z M 177.472656 297.289062 " clip-rule="nonzero"/></clipPath><clipPath id="4735adccac"><path d="M 170.769531 29.410156 L 204.230469 29.410156 L 204.230469 297.273438 L 170.769531 297.273438 Z M 170.769531 29.410156 " clip-rule="nonzero"/></clipPath><clipPath id="d578148c83"><path d="M 110.660156 75.9375 L 264.3125 75.9375 L 264.3125 105.046875 L 110.660156 105.046875 Z M 110.660156 75.9375 " clip-rule="nonzero"/></clipPath></defs><g clip-path="url(#29f801c7f3)"><rect x="-37.5" width="450" fill="#ffffff" y="-37.499999" height="449.999989" fill-opacity="1"/><path stroke-linecap="butt" transform="matrix(0.75, 0, 0, 0.75, 0.0000045, 0.000000000000063949)" fill="none" stroke-linejoin="miter" d="M 249.999994 -0.000000000000085265 C 111.927078 -0.000000000000085265 -0.000006 111.927084 -0.000006 250 C -0.000006 388.072917 111.927078 500.000001 249.999994 500.000001 C 388.072911 500.000001 499.999995 388.072917 499.999995 250 C 499.999995 111.927084 388.072911 -0.000000000000085265 249.999994 -0.000000000000085265 Z M 249.999994 -0.000000000000085265 " stroke="#000000" stroke-width="20" stroke-opacity="1" stroke-miterlimit="4"/></g><g clip-path="url(#c6f8860e0f)"><g clip-path="url(#3f1d881f05)"><path fill="#000000" d="M 193.355469 291.371094 C 193.355469 291.371094 193.421875 232.335938 246.136719 217.53125 C 298.847656 202.726562 304.273438 190.8125 317.082031 170.769531 C 317.082031 170.769531 347.234375 243.410156 280.457031 256.625 C 218.664062 268.855469 193.355469 291.371094 193.355469 291.371094 Z M 193.355469 291.371094 " fill-opacity="1" fill-rule="nonzero"/></g></g><g clip-path="url(#2d8b975d8b)"><g clip-path="url(#f69ddd69dd)"><path fill="#000000" d="M 181.636719 291.371094 C 181.636719 291.371094 181.570312 232.335938 128.859375 217.53125 C 76.144531 202.726562 70.722656 190.8125 57.910156 170.769531 C 57.910156 170.769531 27.757812 243.410156 94.535156 256.625 C 156.328125 268.855469 181.636719 291.371094 181.636719 291.371094 Z M 181.636719 291.371094 " fill-opacity="1" fill-rule="nonzero"/></g></g><g clip-path="url(#d262172173)"><g clip-path="url(#a469ef528a)"><path fill="#000000" d="M 191.726562 231.0625 C 191.726562 231.0625 191.773438 188.472656 229.804688 177.792969 C 267.835938 167.113281 271.746094 158.515625 280.988281 144.054688 C 280.988281 144.054688 302.742188 196.460938 254.566406 205.996094 C 209.984375 214.820312 191.726562 231.0625 191.726562 231.0625 Z M 191.726562 231.0625 " fill-opacity="1" fill-rule="nonzero"/></g></g><g clip-path="url(#03b420e8f6)"><g clip-path="url(#4880e1ed6d)"><path fill="#000000" d="M 183.261719 231.0625 C 183.261719 231.0625 183.214844 188.472656 145.1875 177.792969 C 107.15625 167.113281 103.242188 158.515625 94 144.054688 C 94 144.054688 72.246094 196.460938 120.425781 205.996094 C 165.003906 214.820312 183.261719 231.0625 183.261719 231.0625 Z M 183.261719 231.0625 " fill-opacity="1" fill-rule="nonzero"/></g></g><g clip-path="url(#6989a68da6)"><path fill="#000000" d="M 173.414062 321.566406 L 78.757812 322.066406 C 78.6875 308.71875 89.449219 297.84375 102.796875 297.773438 L 197.453125 297.273438 C 197.523438 310.621094 186.761719 321.5 173.414062 321.566406 Z M 173.414062 321.566406 " fill-opacity="1" fill-rule="nonzero"/></g><g clip-path="url(#a3b60945e9)"><path fill="#000000" d="M 201.578125 321.566406 L 296.234375 322.066406 C 296.304688 308.71875 285.542969 297.84375 272.195312 297.773438 L 177.539062 297.273438 C 177.46875 310.621094 188.230469 321.5 201.578125 321.566406 Z M 201.578125 321.566406 " fill-opacity="1" fill-rule="nonzero"/></g><g clip-path="url(#4735adccac)"><path fill="#222222" d="M 170.769531 29.410156 L 204.230469 29.410156 L 204.230469 297.335938 L 170.769531 297.335938 Z M 170.769531 29.410156 " fill-opacity="1" fill-rule="nonzero"/></g><g clip-path="url(#d578148c83)"><path fill="#222222" d="M 264.3125 75.9375 L 264.3125 105.046875 L 110.699219 105.046875 L 110.699219 75.9375 Z M 264.3125 75.9375 " fill-opacity="1" fill-rule="nonzero"/></g></svg>