<svg xmlns="http://www.w3.org/2000/svg" xmlns:xlink="http://www.w3.org/1999/xlink" width="500" zoomAndPan="magnify" viewBox="0 0 375 374.999991" height="500" preserveAspectRatio="xMidYMid meet" version="1.0"><defs><g/><clipPath id="1f699b7389"><path d="M 187.5 0 C 83.945312 0 0 83.945312 0 187.5 C 0 291.054688 83.945312 375 187.5 375 C 291.054688 375 375 291.054688 375 187.5 C 375 83.945312 291.054688 0 187.5 0 Z M 187.5 0 " clip-rule="nonzero"/></clipPath><clipPath id="12e56b8303"><path d="M 44.730469 44.730469 L 330.269531 44.730469 L 330.269531 330.269531 L 44.730469 330.269531 Z M 44.730469 44.730469 " clip-rule="nonzero"/></clipPath><clipPath id="95e0fdb2f4"><path d="M 187.5 44.730469 C 108.652344 44.730469 44.730469 108.652344 44.730469 187.5 C 44.730469 266.347656 108.652344 330.269531 187.5 330.269531 C 266.347656 330.269531 330.269531 266.347656 330.269531 187.5 C 330.269531 108.652344 266.347656 44.730469 187.5 44.730469 Z M 187.5 44.730469 " clip-rule="nonzero"/></clipPath><clipPath id="ed6aae5d56"><path d="M 44.730469 44.730469 L 330.257812 44.730469 L 330.257812 330.257812 L 44.730469 330.257812 Z M 44.730469 44.730469 " clip-rule="nonzero"/></clipPath><clipPath id="705c895a3a"><path d="M 187.496094 44.730469 C 108.648438 44.730469 44.730469 108.648438 44.730469 187.496094 C 44.730469 266.339844 108.648438 330.257812 187.496094 330.257812 C 266.339844 330.257812 330.257812 266.339844 330.257812 187.496094 C 330.257812 108.648438 266.339844 44.730469 187.496094 44.730469 Z M 187.496094 44.730469 " clip-rule="nonzero"/></clipPath><clipPath id="e5f56682ec"><path d="M 191.226562 174.828125 L 275 174.828125 L 275 251.371094 L 191.226562 251.371094 Z M 191.226562 174.828125 " clip-rule="nonzero"/></clipPath><clipPath id="df9698a23a"><path d="M 191.226562 177.078125 L 191.226562 249.246094 C 191.226562 249.84375 191.464844 250.414062 191.886719 250.839844 C 192.308594 251.261719 192.878906 251.496094 193.476562 251.496094 L 286.796875 251.496094 C 287.394531 251.496094 287.964844 251.261719 288.386719 250.839844 C 288.808594 250.414062 289.046875 249.84375 289.046875 249.246094 L 289.046875 177.078125 C 289.046875 176.484375 288.808594 175.910156 288.386719 175.488281 C 287.964844 175.066406 287.394531 174.828125 286.796875 174.828125 L 193.476562 174.828125 C 192.878906 174.828125 192.308594 175.066406 191.886719 175.488281 C 191.464844 175.910156 191.226562 176.484375 191.226562 177.078125 Z M 191.226562 177.078125 " clip-rule="nonzero"/></clipPath><clipPath id="d835efca3c"><path d="M 100 174.828125 L 183.582031 174.828125 L 183.582031 251.371094 L 100 251.371094 Z M 100 174.828125 " clip-rule="nonzero"/></clipPath><clipPath id="2710f54046"><path d="M 85.953125 177.078125 L 85.953125 249.246094 C 85.953125 249.84375 86.191406 250.414062 86.613281 250.839844 C 87.035156 251.261719 87.605469 251.496094 88.203125 251.496094 L 181.523438 251.496094 C 182.121094 251.496094 182.691406 251.261719 183.113281 250.839844 C 183.535156 250.414062 183.773438 249.84375 183.773438 249.246094 L 183.773438 177.078125 C 183.773438 176.484375 183.535156 175.910156 183.113281 175.488281 C 182.691406 175.066406 182.121094 174.828125 181.523438 174.828125 L 88.203125 174.828125 C 87.605469 174.828125 87.035156 175.066406 86.613281 175.488281 C 86.191406 175.910156 85.953125 176.484375 85.953125 177.078125 Z M 85.953125 177.078125 " clip-rule="nonzero"/></clipPath><clipPath id="1ada56c6aa"><path d="M 190.1875 157.847656 L 251 157.847656 L 251 213.300781 L 190.1875 213.300781 Z M 190.1875 157.847656 " clip-rule="nonzero"/></clipPath><clipPath id="d432418f30"><path d="M 190.1875 159.347656 L 190.1875 211.664062 C 190.1875 212.0625 190.347656 212.441406 190.628906 212.722656 C 190.910156 213.003906 191.289062 213.164062 191.6875 213.164062 L 259.265625 213.164062 C 259.664062 213.164062 260.046875 213.003906 260.328125 212.722656 C 260.609375 212.441406 260.765625 212.0625 260.765625 211.664062 L 260.765625 159.347656 C 260.765625 158.949219 260.609375 158.570312 260.328125 158.289062 C 260.046875 158.007812 259.664062 157.847656 259.265625 157.847656 L 191.6875 157.847656 C 191.289062 157.847656 190.910156 158.007812 190.628906 158.289062 C 190.347656 158.570312 190.1875 158.949219 190.1875 159.347656 Z M 190.1875 159.347656 " clip-rule="nonzero"/></clipPath><clipPath id="25670dce77"><path d="M 124 157.847656 L 184.527344 157.847656 L 184.527344 213.300781 L 124 213.300781 Z M 124 157.847656 " clip-rule="nonzero"/></clipPath><clipPath id="766d9f5870"><path d="M 114.234375 159.347656 L 114.234375 211.664062 C 114.234375 212.0625 114.390625 212.441406 114.671875 212.722656 C 114.953125 213.003906 115.335938 213.164062 115.734375 213.164062 L 183.3125 213.164062 C 183.710938 213.164062 184.089844 213.003906 184.371094 212.722656 C 184.652344 212.441406 184.8125 212.0625 184.8125 211.664062 L 184.8125 159.347656 C 184.8125 158.949219 184.652344 158.570312 184.371094 158.289062 C 184.089844 158.007812 183.710938 157.847656 183.3125 157.847656 L 115.734375 157.847656 C 115.335938 157.847656 114.953125 158.007812 114.671875 158.289062 C 114.390625 158.570312 114.234375 158.949219 114.234375 159.347656 Z M 114.234375 159.347656 " clip-rule="nonzero"/></clipPath><clipPath id="bb34cfe8b9"><path d="M 118.332031 255.257812 L 194 255.257812 L 194 270.996094 L 118.332031 270.996094 Z M 118.332031 255.257812 " clip-rule="nonzero"/></clipPath><clipPath id="bfaaf45a63"><path d="M 181.125 255.257812 L 256.664062 255.257812 L 256.664062 270.996094 L 181.125 270.996094 Z M 181.125 255.257812 " clip-rule="nonzero"/></clipPath><clipPath id="7cb62f4102"><path d="M 176.867188 84.976562 L 198.132812 84.976562 L 198.132812 255.246094 L 176.867188 255.246094 Z M 176.867188 84.976562 " clip-rule="nonzero"/></clipPath><clipPath id="960fb09313"><path d="M 138.65625 114.554688 L 236.328125 114.554688 L 236.328125 133.058594 L 138.65625 133.058594 Z M 138.65625 114.554688 " clip-rule="nonzero"/></clipPath></defs><g clip-path="url(#1f699b7389)"><rect x="-37.5" width="450" fill="#ffffff" y="-37.499999" height="449.999989" fill-opacity="1"/><path stroke-linecap="butt" transform="matrix(0.75, 0, 0, 0.75, 0.0000045, 0.000000000000063949)" fill="none" stroke-linejoin="miter" d="M 249.999994 -0.000000000000085265 C 111.927078 -0.000000000000085265 -0.000006 111.927084 -0.000006 250 C -0.000006 388.072917 111.927078 500.000001 249.999994 500.000001 C 388.072911 500.000001 499.999995 388.072917 499.999995 250 C 499.999995 111.927084 388.072911 -0.000000000000085265 249.999994 -0.000000000000085265 Z M 249.999994 -0.000000000000085265 " stroke="#000000" stroke-width="20" stroke-opacity="1" stroke-miterlimit="4"/></g><g clip-path="url(#12e56b8303)"><g clip-path="url(#95e0fdb2f4)"><path fill="#ffffff" d="M 44.730469 44.730469 L 330.269531 44.730469 L 330.269531 330.269531 L 44.730469 330.269531 Z M 44.730469 44.730469 " fill-opacity="1" fill-rule="nonzero"/></g></g><g clip-path="url(#ed6aae5d56)"><g clip-path="url(#705c895a3a)"><path stroke-linecap="butt" transform="matrix(0.75, 0, 0, 0.75, 44.731326, 44.731322)" fill="none" stroke-linejoin="miter" d="M 190.353036 -0.00113748 C 85.22282 -0.00113748 -0.00114348 85.222826 -0.00114348 190.353042 C -0.00114348 295.478049 85.22282 380.702013 190.353036 380.702013 C 295.478043 380.702013 380.702007 295.478049 380.702007 190.353042 C 380.702007 85.222826 295.478043 -0.00113748 190.353036 -0.00113748 Z M 190.353036 -0.00113748 " stroke="#000000" stroke-width="20" stroke-opacity="1" stroke-miterlimit="4"/></g></g><g clip-path="url(#e5f56682ec)"><g clip-path="url(#df9698a23a)"><path fill="#000000" d="M 191.222656 251.492188 C 191.222656 251.492188 191.265625 213.96875 224.769531 204.558594 C 258.277344 195.148438 261.726562 187.578125 269.867188 174.835938 C 269.867188 174.835938 289.035156 221.007812 246.585938 229.40625 C 207.308594 237.183594 191.222656 251.492188 191.222656 251.492188 Z M 191.222656 251.492188 " fill-opacity="1" fill-rule="nonzero"/></g></g><g clip-path="url(#d835efca3c)"><g clip-path="url(#2710f54046)"><path fill="#000000" d="M 183.769531 251.492188 C 183.769531 251.492188 183.726562 213.96875 150.222656 204.558594 C 116.714844 195.148438 113.265625 187.578125 105.125 174.835938 C 105.125 174.835938 85.957031 221.007812 128.40625 229.40625 C 167.683594 237.183594 183.769531 251.492188 183.769531 251.492188 Z M 183.769531 251.492188 " fill-opacity="1" fill-rule="nonzero"/></g></g><g clip-path="url(#1ada56c6aa)"><g clip-path="url(#d432418f30)"><path fill="#000000" d="M 190.191406 213.15625 C 190.191406 213.15625 190.21875 186.085938 214.394531 179.296875 C 238.566406 172.507812 241.054688 167.042969 246.925781 157.851562 C 246.925781 157.851562 260.753906 191.164062 230.132812 197.222656 C 201.796875 202.832031 190.191406 213.15625 190.191406 213.15625 Z M 190.191406 213.15625 " fill-opacity="1" fill-rule="nonzero"/></g></g><g clip-path="url(#25670dce77)"><g clip-path="url(#766d9f5870)"><path fill="#000000" d="M 184.808594 213.15625 C 184.808594 213.15625 184.777344 186.085938 160.605469 179.296875 C 136.429688 172.507812 133.945312 167.042969 128.070312 157.851562 C 128.070312 157.851562 114.242188 191.164062 144.863281 197.222656 C 173.203125 202.832031 184.808594 213.15625 184.808594 213.15625 Z M 184.808594 213.15625 " fill-opacity="1" fill-rule="nonzero"/></g></g><g clip-path="url(#bb34cfe8b9)"><path fill="#000000" d="M 178.546875 270.691406 L 118.375 271.007812 C 118.332031 262.523438 125.171875 255.609375 133.65625 255.566406 L 193.828125 255.246094 C 193.871094 263.730469 187.03125 270.644531 178.546875 270.691406 Z M 178.546875 270.691406 " fill-opacity="1" fill-rule="nonzero"/></g><g clip-path="url(#bfaaf45a63)"><path fill="#000000" d="M 196.449219 270.691406 L 256.617188 271.007812 C 256.664062 262.523438 249.820312 255.609375 241.335938 255.566406 L 181.167969 255.246094 C 181.125 263.730469 187.964844 270.644531 196.449219 270.691406 Z M 196.449219 270.691406 " fill-opacity="1" fill-rule="nonzero"/></g><g clip-path="url(#7cb62f4102)"><path fill="#222222" d="M 176.867188 84.976562 L 198.132812 84.976562 L 198.132812 255.285156 L 176.867188 255.285156 Z M 176.867188 84.976562 " fill-opacity="1" fill-rule="nonzero"/></g><g clip-path="url(#960fb09313)"><path fill="#222222" d="M 236.328125 114.554688 L 236.328125 133.058594 L 138.679688 133.058594 L 138.679688 114.554688 Z M 236.328125 114.554688 " fill-opacity="1" fill-rule="nonzero"/></g><g fill="#000000" fill-opacity="1"><g transform="translate(151.033587, 45.383814)"><g><path d="M 3.59375 -0.734375 L -2.234375 -29.359375 L 3.84375 -30.59375 L 8.65625 -6.984375 L 20.28125 -9.34375 L 21.296875 -4.328125 Z M 3.59375 -0.734375 "/></g></g></g><g fill="#000000" fill-opacity="1"><g transform="translate(190.153868, 39.854836)"><g><path d="M 31.765625 -10.84375 C 31.171875 -6.03125 29.523438 -2.484375 26.828125 -0.203125 C 24.128906 2.078125 20.5625 2.945312 16.125 2.40625 C 11.675781 1.851562 8.421875 0.144531 6.359375 -2.71875 C 4.296875 -5.59375 3.5625 -9.445312 4.15625 -14.28125 C 4.75 -19.101562 6.394531 -22.644531 9.09375 -24.90625 C 11.800781 -27.164062 15.382812 -28.019531 19.84375 -27.46875 C 24.300781 -26.914062 27.550781 -25.207031 29.59375 -22.34375 C 31.632812 -19.476562 32.359375 -15.644531 31.765625 -10.84375 Z M 10.609375 -13.453125 C 10.203125 -10.203125 10.515625 -7.679688 11.546875 -5.890625 C 12.578125 -4.109375 14.316406 -3.066406 16.765625 -2.765625 C 21.671875 -2.160156 24.523438 -5.117188 25.328125 -11.640625 C 26.128906 -18.171875 24.085938 -21.738281 19.203125 -22.34375 C 16.765625 -22.644531 14.820312 -22.046875 13.375 -20.546875 C 11.925781 -19.054688 11.003906 -16.691406 10.609375 -13.453125 Z M 10.609375 -13.453125 "/></g></g></g><g fill="#000000" fill-opacity="1"><g transform="translate(109.294658, 63.316938)"><g><path d="M 24 -12.78125 L 17.796875 -9.46875 L 5.25 -16.734375 L 3.8125 -13.859375 L 8.71875 -4.640625 L 3.234375 -1.71875 L -10.5 -27.5 L -5.015625 -30.421875 L 1.265625 -18.625 L 1.78125 -22.8125 L 4.125 -35.296875 L 10.1875 -38.53125 L 7.265625 -22.34375 Z M 24 -12.78125 "/></g></g></g><g fill="#000000" fill-opacity="1"><g transform="translate(237.853759, 49.331646)"><g><path d="M 15.6875 -9.546875 L 17.5 -8.65625 C 19.21875 -7.8125 20.664062 -7.519531 21.84375 -7.78125 C 23.019531 -8.039062 23.925781 -8.816406 24.5625 -10.109375 C 25.195312 -11.410156 25.3125 -12.546875 24.90625 -13.515625 C 24.507812 -14.484375 23.546875 -15.34375 22.015625 -16.09375 L 19.5 -17.328125 Z M 30.265625 -7.5625 C 28.878906 -4.738281 26.941406 -3.007812 24.453125 -2.375 C 21.960938 -1.738281 19.085938 -2.21875 15.828125 -3.8125 L 13.453125 -4.984375 L 8.875 4.34375 L 3.296875 1.609375 L 16.15625 -24.625 L 24.546875 -20.515625 C 27.722656 -18.953125 29.800781 -17.078125 30.78125 -14.890625 C 31.769531 -12.710938 31.597656 -10.269531 30.265625 -7.5625 Z M 30.265625 -7.5625 "/></g></g></g><g fill="#000000" fill-opacity="1"><g transform="translate(85.434817, 81.079516)"><g><path d="M 2.796875 -2.390625 L -16.1875 -24.609375 L -11.484375 -28.640625 L 7.5 -6.421875 Z M 2.796875 -2.390625 "/></g></g></g><g fill="#000000" fill-opacity="1"><g transform="translate(275.580098, 70.052554)"><g><path d="M 15.25 13.71875 L 2.734375 2.453125 L 22.28125 -19.265625 L 34.796875 -8 L 31.390625 -4.21875 L 23.484375 -11.328125 L 19.203125 -6.578125 L 26.546875 0.03125 L 23.15625 3.8125 L 15.8125 -2.796875 L 10.765625 2.796875 L 18.671875 9.90625 Z M 15.25 13.71875 "/></g></g></g><g fill="#000000" fill-opacity="1"><g transform="translate(62.811393, 109.874258)"><g><path d="M 6.34375 -21.53125 C 8.425781 -19.914062 9.492188 -17.894531 9.546875 -15.46875 C 9.597656 -13.039062 8.59375 -10.484375 6.53125 -7.796875 C 4.625 -5.328125 2.46875 -3.5 0.0625 -2.3125 L -4.5 -5.828125 C -2.59375 -6.859375 -1.082031 -7.800781 0.03125 -8.65625 C 1.15625 -9.519531 2.0625 -10.40625 2.75 -11.3125 C 3.582031 -12.382812 4.007812 -13.367188 4.03125 -14.265625 C 4.0625 -15.160156 3.675781 -15.921875 2.875 -16.546875 C 2.414062 -16.898438 1.910156 -17.082031 1.359375 -17.09375 C 0.804688 -17.101562 0.179688 -16.988281 -0.515625 -16.75 C -1.222656 -16.507812 -2.515625 -15.910156 -4.390625 -14.953125 C -6.148438 -14.066406 -7.609375 -13.5 -8.765625 -13.25 C -9.921875 -13.007812 -11.066406 -12.992188 -12.203125 -13.203125 C -13.335938 -13.410156 -14.453125 -13.9375 -15.546875 -14.78125 C -17.585938 -16.351562 -18.660156 -18.28125 -18.765625 -20.5625 C -18.867188 -22.851562 -17.976562 -25.222656 -16.09375 -27.671875 C -15.164062 -28.878906 -14.140625 -29.921875 -13.015625 -30.796875 C -11.890625 -31.671875 -10.613281 -32.503906 -9.1875 -33.296875 L -6.578125 -28.78125 C -8.046875 -27.9375 -9.1875 -27.1875 -10 -26.53125 C -10.820312 -25.875 -11.535156 -25.15625 -12.140625 -24.375 C -12.847656 -23.445312 -13.175781 -22.566406 -13.125 -21.734375 C -13.070312 -20.910156 -12.703125 -20.234375 -12.015625 -19.703125 C -11.578125 -19.359375 -11.117188 -19.160156 -10.640625 -19.109375 C -10.160156 -19.066406 -9.601562 -19.144531 -8.96875 -19.34375 C -8.332031 -19.550781 -6.992188 -20.179688 -4.953125 -21.234375 C -2.253906 -22.585938 -0.078125 -23.265625 1.578125 -23.265625 C 3.242188 -23.265625 4.832031 -22.6875 6.34375 -21.53125 Z M 6.34375 -21.53125 "/></g></g></g><g fill="#000000" fill-opacity="1"><g transform="translate(304.272806, 98.811675)"><g><path d="M 27.28125 16.03125 C 23.175781 18.550781 19.316406 19.304688 15.703125 18.296875 C 12.085938 17.296875 8.929688 14.59375 6.234375 10.1875 L 1.921875 3.125 L 26.84375 -12.125 L 31.640625 -4.28125 C 34.128906 -0.21875 34.988281 3.59375 34.21875 7.15625 C 33.445312 10.71875 31.132812 13.675781 27.28125 16.03125 Z M 23.78125 10.640625 C 29.132812 7.359375 30.363281 3.351562 27.46875 -1.375 L 25.75 -4.1875 L 9.53125 5.75 L 10.921875 8.015625 C 14.035156 13.109375 18.320312 13.984375 23.78125 10.640625 Z M 23.78125 10.640625 "/></g></g></g><g fill="#000000" fill-opacity="1"><g transform="translate(324.151311, 135.806894)"><g><path d="M 1.1875 3.46875 L 28.859375 -5.9375 L 30.84375 -0.0625 L 3.171875 9.34375 Z M 1.1875 3.46875 "/></g></g></g><g fill="#000000" fill-opacity="1"><g transform="translate(44.058127, 152.043919)"><g><path d="M 9.84375 -27.921875 L 7.234375 -20.5 L -17.84375 -15.859375 L -17.90625 -15.6875 C -14.144531 -14.625 -11.476562 -13.816406 -9.90625 -13.265625 L 3.0625 -8.6875 L 1.21875 -3.46875 L -26.34375 -13.1875 L -23.734375 -20.5625 L 1.125 -25.25 L 1.171875 -25.375 C -2.472656 -26.445312 -5.035156 -27.25 -6.515625 -27.78125 L -19.5625 -32.375 L -17.71875 -37.640625 Z M 9.84375 -27.921875 "/></g></g></g><g fill="#000000" fill-opacity="1"><g transform="translate(38.499624, 187.507508)"><g><path d="M 2.546875 -20.359375 L 0.453125 -3.640625 L -28.53125 -7.265625 L -26.4375 -23.984375 L -21.40625 -23.359375 L -22.71875 -12.796875 L -16.359375 -12 L -15.140625 -21.8125 L -10.109375 -21.1875 L -11.328125 -11.375 L -3.84375 -10.4375 L -2.53125 -21 Z M 2.546875 -20.359375 "/></g></g></g><g fill="#000000" fill-opacity="1"><g transform="translate(332.359703, 160.079348)"><g><path d="M 2.03125 21.46875 L 8.75 18.703125 L 7.75 8.109375 L 0.625 6.640625 L 0 0 L 30.1875 7.515625 L 30.90625 15.0625 L 2.65625 28.125 Z M 13.796875 16.75 C 19.878906 14.207031 23.320312 12.773438 24.125 12.453125 C 24.925781 12.128906 25.5625 11.890625 26.03125 11.734375 C 24.289062 11.453125 19.972656 10.597656 13.078125 9.171875 Z M 13.796875 16.75 "/></g></g></g><g fill="#000000" fill-opacity="1"><g transform="translate(134.153452, 355.909346)"><g><path d="M 3.53125 1 L 11.46875 -27.125 L 17.4375 -25.4375 L 9.5 2.6875 Z M 3.53125 1 "/></g></g></g><g fill="#000000" fill-opacity="1"><g transform="translate(174.687957, 363.271061)"><g><path d="M 20.921875 -8.109375 C 20.921875 -5.472656 19.972656 -3.394531 18.078125 -1.875 C 16.179688 -0.351562 13.539062 0.40625 10.15625 0.40625 C 7.039062 0.40625 4.28125 -0.179688 1.875 -1.359375 L 1.875 -7.109375 C 3.851562 -6.234375 5.523438 -5.613281 6.890625 -5.25 C 8.253906 -4.894531 9.503906 -4.71875 10.640625 -4.71875 C 11.992188 -4.71875 13.035156 -4.976562 13.765625 -5.5 C 14.492188 -6.019531 14.859375 -6.789062 14.859375 -7.8125 C 14.859375 -8.382812 14.695312 -8.894531 14.375 -9.34375 C 14.050781 -9.789062 13.578125 -10.21875 12.953125 -10.625 C 12.335938 -11.039062 11.078125 -11.703125 9.171875 -12.609375 C 7.390625 -13.453125 6.050781 -14.257812 5.15625 -15.03125 C 4.257812 -15.800781 3.546875 -16.695312 3.015625 -17.71875 C 2.484375 -18.75 2.21875 -19.953125 2.21875 -21.328125 C 2.21875 -23.910156 3.09375 -25.941406 4.84375 -27.421875 C 6.59375 -28.898438 9.015625 -29.640625 12.109375 -29.640625 C 13.628906 -29.640625 15.078125 -29.457031 16.453125 -29.09375 C 17.835938 -28.738281 19.28125 -28.234375 20.78125 -27.578125 L 18.796875 -22.765625 C 17.234375 -23.410156 15.941406 -23.859375 14.921875 -24.109375 C 13.898438 -24.359375 12.894531 -24.484375 11.90625 -24.484375 C 10.738281 -24.484375 9.84375 -24.207031 9.21875 -23.65625 C 8.59375 -23.113281 8.28125 -22.40625 8.28125 -21.53125 C 8.28125 -20.976562 8.40625 -20.5 8.65625 -20.09375 C 8.90625 -19.6875 9.304688 -19.289062 9.859375 -18.90625 C 10.410156 -18.53125 11.722656 -17.851562 13.796875 -16.875 C 16.523438 -15.5625 18.394531 -14.25 19.40625 -12.9375 C 20.414062 -11.625 20.921875 -10.015625 20.921875 -8.109375 Z M 20.921875 -8.109375 "/></g></g></g><g fill="#000000" fill-opacity="1"><g transform="translate(87.12501, 332.902278)"><g><path d="M 16.671875 -9.15625 L 18.40625 -8.15625 C 20.101562 -7.175781 21.515625 -6.738281 22.640625 -6.84375 C 23.773438 -6.945312 24.691406 -7.609375 25.390625 -8.828125 C 26.085938 -10.023438 26.164062 -11.113281 25.625 -12.09375 C 25.09375 -13.070312 23.960938 -14.0625 22.234375 -15.0625 L 20.609375 -16 Z M 14.15625 -4.796875 L 8.5625 4.921875 L 3.1875 1.828125 L 17.765625 -23.5 L 25.140625 -19.25 C 28.585938 -17.257812 30.773438 -15.164062 31.703125 -12.96875 C 32.628906 -10.769531 32.351562 -8.390625 30.875 -5.828125 C 30.019531 -4.335938 28.851562 -3.25 27.375 -2.5625 C 25.894531 -1.882812 24.21875 -1.640625 22.34375 -1.828125 C 22.863281 6.054688 23.222656 11.160156 23.421875 13.484375 L 17.46875 10.046875 L 17.015625 -3.15625 Z M 14.15625 -4.796875 "/></g></g></g><g fill="#000000" fill-opacity="1"><g transform="translate(225.864903, 360.074953)"><g><path d="M 14.421875 -3.953125 L 8.4375 -2.3125 L 2.0625 -25.515625 L -5.59375 -23.421875 L -6.953125 -28.390625 L 14.34375 -34.234375 L 15.703125 -29.265625 L 8.046875 -27.15625 Z M 14.421875 -3.953125 "/></g></g></g><g fill="#000000" fill-opacity="1"><g transform="translate(275.644143, 340.150967)"><g><path d="M 16.96875 -11.515625 L 3.03125 -2.0625 L -13.375 -26.234375 L 0.5625 -35.6875 L 3.40625 -31.484375 L -5.390625 -25.515625 L -1.78125 -20.21875 L 6.40625 -25.765625 L 9.25 -21.5625 L 1.0625 -16.015625 L 5.296875 -9.78125 L 14.09375 -15.75 Z M 16.96875 -11.515625 "/></g></g></g><g fill="#000000" fill-opacity="1"><g transform="translate(47.671944, 296.75613)"><g><path d="M 19.765625 18.671875 L 14.65625 13.84375 L 17.546875 -0.375 L 14.359375 -0.8125 L 7.1875 6.78125 L 2.671875 2.515625 L 22.734375 -18.734375 L 27.25 -14.46875 L 18.0625 -4.734375 L 22.203125 -5.578125 L 34.78125 -7.359375 L 39.78125 -2.640625 L 23.484375 -0.234375 Z M 19.765625 18.671875 "/></g></g></g><g fill="#000000" fill-opacity="1"><g transform="translate(312.774176, 310.273461)"><g><path d="M 19.453125 -22.328125 L 14.28125 -16.390625 L -10.75 -21.328125 L -10.875 -21.1875 C -7.75 -18.8125 -5.554688 -17.078125 -4.296875 -15.984375 L 6.0625 -6.953125 L 2.40625 -2.765625 L -19.625 -21.953125 L -14.46875 -27.859375 L 10.359375 -23.0625 L 10.453125 -23.171875 C 7.453125 -25.515625 5.359375 -27.203125 4.171875 -28.234375 L -6.25 -37.3125 L -2.578125 -41.515625 Z M 19.453125 -22.328125 "/></g></g></g></svg>